<mxfile host="app.diagrams.net" modified="2023-12-09T19:53:55.337Z" agent="Mozilla/5.0 (X11; Linux x86_64) AppleWebKit/537.36 (KHTML, like Gecko) Chrome/116.0.0.0 Safari/537.36" etag="lHvUbUC1Hlud0pXQO_CZ" version="22.1.7" type="github">
  <diagram name="Página-1" id="01Xk7Bp4QnYqnkWpoMOx">
    <mxGraphModel dx="1035" dy="586" grid="1" gridSize="10" guides="1" tooltips="1" connect="1" arrows="1" fold="1" page="1" pageScale="1" pageWidth="827" pageHeight="1169" math="0" shadow="0">
      <root>
        <mxCell id="0" />
        <mxCell id="1" parent="0" />
        <mxCell id="FFpbOJQuNYy9sZldtp6s-5" value="&lt;span style=&quot;color: rgb(0, 0, 0); font-family: Helvetica; font-size: 12px; font-style: normal; font-variant-ligatures: normal; font-variant-caps: normal; font-weight: 400; letter-spacing: normal; orphans: 2; text-align: center; text-indent: 0px; text-transform: none; widows: 2; word-spacing: 0px; -webkit-text-stroke-width: 0px; background-color: rgb(251, 251, 251); text-decoration-thickness: initial; text-decoration-style: initial; text-decoration-color: initial; float: none; display: inline !important;&quot;&gt;Sistema de Controle Clínica Veterinária&lt;/span&gt;" style="html=1;whiteSpace=wrap;align=center;verticalAlign=top;" vertex="1" parent="1">
          <mxGeometry x="228" y="55" width="370" height="390" as="geometry" />
        </mxCell>
        <mxCell id="FFpbOJQuNYy9sZldtp6s-2" value="Veterinário" style="shape=umlActor;verticalLabelPosition=bottom;verticalAlign=top;html=1;" vertex="1" parent="1">
          <mxGeometry x="80" y="80" width="30" height="60" as="geometry" />
        </mxCell>
        <mxCell id="FFpbOJQuNYy9sZldtp6s-3" value="Use Case" style="ellipse;whiteSpace=wrap;html=1;" vertex="1" parent="1">
          <mxGeometry x="25" y="170" width="140" height="70" as="geometry" />
        </mxCell>
        <mxCell id="FFpbOJQuNYy9sZldtp6s-4" value="uc Sistema de Controle Clínica Veterinária" style="shape=umlFrame;whiteSpace=wrap;html=1;pointerEvents=0;width=270;height=30;" vertex="1" parent="1">
          <mxGeometry x="3" width="820" height="500" as="geometry" />
        </mxCell>
        <mxCell id="FFpbOJQuNYy9sZldtp6s-6" value="Secretária" style="shape=umlActor;verticalLabelPosition=bottom;verticalAlign=top;html=1;" vertex="1" parent="1">
          <mxGeometry x="690" y="80" width="30" height="60" as="geometry" />
        </mxCell>
      </root>
    </mxGraphModel>
  </diagram>
</mxfile>
